Coordinates
version=1
nRows=22
nColumns=24
inDegrees=yes

Units are S.I. units (second, meters, Newtons, ...)
Angles are in degrees.

endheader
time	pelvis_tilt	pelvis_list	pelvis_rotation	pelvis_tx	pelvis_ty	pelvis_tz	hip_flexion_r	hip_adduction_r	hip_rotation_r	knee_angle_r	ankle_angle_r	subtalar_angle_r	mtp_angle_r	hip_flexion_l	hip_adduction_l	hip_rotation_l	knee_angle_l	ankle_angle_l	subtalar_angle_l	mtp_angle_l	lumbar_extension	lumbar_bending	lumbar_rotation
      4.31500000	      9.62244063	     10.41131276	     15.48520737	     -0.22478947	      0.73921585	     -0.26214835	     16.22008631	    -11.71148220	     -6.16813347	    -13.66814389	     21.37024396	     13.41631126	      0.00000000	    -22.72694090	      7.86222327	     12.14769153	    -29.74014734	     26.24564024	     14.37695571	      0.00000000	    -31.68161331	     -5.61036968	     -9.12936817
      4.32000000	      9.62166692	     10.03284825	     15.49048620	     -0.21596879	      0.73885887	     -0.26224860	     16.08829442	    -11.11706862	     -6.06463002	    -14.29672368	     20.90786941	     12.96584492	      0.00000000	    -22.10721943	      7.53984463	     12.01620940	    -31.92097618	     24.89888255	     14.11175098	      0.00000000	    -31.30907513	     -5.24919856	     -8.71522228
      4.32500000	      9.63186556	      9.61833725	     15.35366004	     -0.20710668	      0.73848590	     -0.26219592	     15.99499027	    -10.43069158	     -5.72472500	    -14.98675902	     20.36671149	     12.32271871	      0.00000000	    -21.41617950	      7.21895142	     11.64624830	    -34.15682395	     23.33236256	     13.91110496	      0.00000000	    -30.92669270	     -4.92117887	     -8.13633569
      4.33000000	      9.68515371	      9.15241175	     15.20232737	     -0.19828854	      0.73816130	     -0.26215571	     15.88090109	     -9.68198600	     -5.35901322	    -15.75297989	     19.76625396	     11.61805269	      0.00000000	    -20.68651878	      6.85294092	     11.24099173	    -36.45338119	     21.58932834	     13.55969255	      0.00000000	    -30.58828987	     -4.51911897	     -7.55761557
      4.33500000	      9.76080678	      8.64274375	     15.02662134	     -0.18951113	      0.73787417	     -0.26207995	     15.75998370	     -8.87414322	     -4.95082096	    -16.55852897	     19.13898234	     10.84824284	      0.00000000	    -19.89796495	      6.44875931	     10.78371519	    -38.79788987	     19.65681316	     13.07684147	      0.00000000	    -30.27619617	     -4.07512278	     -6.95891212
      4.34000000	      9.84635573	      8.09788585	     14.83280356	     -0.18080454	      0.73762102	     -0.26197643	     15.63413705	     -8.01814227	     -4.47973131	    -17.37032869	     18.49193435	      9.98672147	      0.00000000	    -19.03564932	      6.01147617	     10.27282736	    -41.18684201	     17.56135481	     12.46717051	      0.00000000	    -29.98589523	     -3.59621960	     -6.34177913
      4.34500000	      9.96303847	      7.50589475	     14.62827632	     -0.17215341	      0.73742023	     -0.26185330	     15.49172454	     -7.10570791	     -4.01251079	    -18.21842084	     17.87491352	      9.13868643	      0.00000000	    -18.14092937	      5.52002899	      9.74109352	    -43.57089943	     15.35398401	     11.68880219	      0.00000000	    -29.73835068	     -3.05992078	     -5.74047774
      4.35000000	     10.09516401	      6.87736323	     14.42304236	     -0.16357690	      0.73726722	     -0.26172198	     15.33139442	     -6.15167603	     -3.53491522	    -19.06080357	     17.30742298	      8.27926810	      0.00000000	    -17.19909979	      4.98340869	      9.19882408	    -45.94556054	     13.07885641	     10.75079413	      0.00000000	    -29.52322937	     -2.47789531	     -5.14448554
      4.35500000	     10.24913266	      6.21842183	     14.22209503	     -0.15509482	      0.73716444	     -0.26157665	     15.14618059	     -5.16519593	     -3.08863945	    -19.89691844	     16.80679245	      7.45595014	      0.00000000	    -16.22273538	      4.40062778	      8.65039304	    -48.29360360	     10.81779318	      9.65374301	      0.00000000	    -29.35607100	     -1.85543609	     -4.57848331
      4.36000000	     10.41275498	      5.53312362	     14.03858318	     -0.14667803	      0.73712622	     -0.26143777	     14.92754760	     -4.15121941	     -2.64625120	    -20.69398429	     16.41540197	      6.68004915	      0.00000000	    -15.21941211	      3.78621216	      8.16916296	    -50.57991137	      8.59682758	      8.45970872	      0.00000000	    -29.21751665	     -1.19556340	     -4.03530791
      4.36500000	     10.58312310	      4.82983104	     13.86980097	     -0.13836728	      0.73713686	     -0.26128544	     14.68026387	     -3.12045849	     -2.22860744	    -21.44535185	     16.10635923	      5.96112772	      0.00000000	    -14.17766253	      3.13631324	      7.70348995	    -52.81470640	      6.52945628	      7.18335100	      0.00000000	    -29.11602583	     -0.50970380	     -3.54966391
      4.37000000	     10.77703366	      4.12800554	     13.74248811	     -0.13014329	      0.73722069	     -0.26120262	     14.37565302	     -2.11055076	     -1.93826025	    -22.15541775	     15.97081748	      5.35927571	      0.00000000	    -13.13987607	      2.48673673	      7.34541592	    -54.96946939	      4.66385713	      5.80146203	      0.00000000	    -29.06731556	      0.19910924	     -3.09000969
      4.37500000	     10.96392858	      3.42671901	     13.64022020	     -0.12202184	      0.73735822	     -0.26112094	     14.03679748	     -1.10532744	     -1.66030666	    -22.78706745	     15.93748145	      4.82206644	      0.00000000	    -12.06380064	      1.83274438	      7.04750378	    -57.05047845	      3.05473815	      4.42832785	      0.00000000	    -29.04068424	      0.91340543	     -2.69898968
      4.38000000	     11.15343931	      2.73724506	     13.57576969	     -0.11399835	      0.73756205	     -0.26108413	     13.64701106	     -0.12642606	     -1.45268669	    -23.33715283	     16.03482233	      4.39209424	      0.00000000	    -10.96924381	      1.19358442	      6.84232539	    -59.04777711	      1.74816856	      3.07792332	      0.00000000	    -29.04450285	      1.63152303	     -2.36516563
      4.38500000	     11.34004852	      2.07099727	     13.54916187	     -0.10607632	      0.73782988	     -0.26109328	     13.20825211	      0.81412279	     -1.31256136	    -23.79910628	     16.25752731	      4.05763448	      0.00000000	     -9.85310237	      0.58686140	      6.73170090	    -60.95702090	      0.76498966	      1.78153568	      0.00000000	    -29.07426275	      2.33999408	     -2.08886427
      4.39000000	     11.54495470	      1.42747406	     13.54287520	     -0.09824575	      0.73818001	     -0.26114572	     12.69996648	      1.71722805	     -1.25863309	    -24.17244655	     16.59660409	      3.90591666	      0.00000000	     -8.74365878	      0.00482887	      6.67584242	    -62.76839922	      0.14559168	      0.57536596	      0.00000000	    -29.14961193	      3.03936564	     -1.86364973
      4.39500000	     11.69097947	      0.83195289	     13.60437356	     -0.09053182	      0.73856331	     -0.26127005	     12.18346588	      2.55499814	     -1.20870991	    -24.43041796	     17.01977920	      3.66762645	      0.00000000	     -7.54919219	     -0.48318770	      6.78187005	    -64.49472344	     -0.19943894	     -0.54707452	      0.00000000	    -29.18839768	      3.69915950	     -1.70735023
      4.40000000	     11.87845207	      0.26442839	     13.63954600	     -0.08287836	      0.73905714	     -0.26142303	     11.56853974	      3.35972408	     -1.20774651	    -24.58720630	     17.52692165	      3.67705306	      0.00000000	     -6.40746976	     -0.93443913	      6.88601092	    -66.09259671	     -0.17708325	     -1.54082360	      0.00000000	    -29.29309670	      4.33266870	     -1.54088613
      4.40500000	     12.01767843	     -0.25540171	     13.75409198	     -0.07535869	      0.73956871	     -0.26163100	     10.95912561	      4.09242279	     -1.29333758	    -24.66978325	     18.06941054	      3.62125931	      0.00000000	     -5.17742820	     -1.32002137	      7.09510439	    -67.61258332	      0.07480851	     -2.41701023	      0.00000000	    -29.36872564	      4.93819733	     -1.49914023
      4.41000000	     12.15503464	     -0.73450335	     13.84771693	     -0.06788040	      0.74017042	     -0.26188857	     10.27776357	      4.77995529	     -1.35745051	    -24.61985059	     18.65857969	      3.68164584	      0.00000000	     -3.96310760	     -1.62316486	      7.33938501	    -68.99042474	      0.59784454	     -3.16611910	      0.00000000	    -29.45666995	      5.49485026	     -1.41005843
      4.41500000	     12.27289317	     -1.17669082	     13.97269097	     -0.06048798	      0.74081282	     -0.26216630	      9.57230142	      5.41857279	     -1.47514002	    -24.48855039	     19.25709187	      3.76609742	      0.00000000	     -2.71497794	     -1.87390009	      7.62942942	    -70.25625248	      1.32134269	     -3.77367109	      0.00000000	    -29.54098344	      6.01587910	     -1.37630501
      4.42000000	     12.37235167	     -1.57061011	     14.11055899	     -0.05316017	      0.74150227	     -0.26248746	      8.83667754	      5.99889106	     -1.60166916	    -24.27693047	     19.86325802	      3.88001321	      0.00000000	     -1.45089228	     -2.05098842	      7.94968445	    -71.39200024	      2.22821487	     -4.22599815	      0.00000000	    -29.61455545	      6.49213846	     -1.36829244
